<?xml version="1.0" standalone="no"?>
<!DOCTYPE svg PUBLIC "-//W3C//DTD SVG 20010904//EN"
 "http://www.w3.org/TR/2001/REC-SVG-20010904/DTD/svg10.dtd">
<svg version="1.0" xmlns="http://www.w3.org/2000/svg"
 width="300.000000pt" height="48.000000pt" viewBox="0 0 300.000000 48.000000"
 preserveAspectRatio="xMidYMid meet">
<metadata>
Created by potrace 1.10, written by Peter Selinger 2001-2011
</metadata>
<g transform="translate(0.000000,48.000000) scale(0.100000,-0.100000)"
fill="#000000" stroke="none">
<path d="M163 403 c-7 -3 -13 -8 -13 -13 0 -11 49 -9 57 3 4 6 0 8 -10 4 -9
-3 -17 -2 -19 2 -2 4 -9 6 -15 4z"/>
<path d="M212 376 c-12 -7 -20 -15 -16 -19 4 -3 12 -3 18 0 17 11 36 12 36 3
0 -5 -9 -12 -20 -15 -11 -3 -20 -11 -20 -16 0 -6 -4 -7 -10 -4 -5 3 -7 0 -4
-8 3 -9 13 -13 26 -9 13 3 19 1 15 -5 -4 -6 1 -17 10 -24 15 -12 16 -12 8 1
-15 23 -14 38 0 44 9 3 12 0 8 -10 -3 -8 1 -14 10 -14 9 0 14 7 12 18 -1 11
-10 16 -26 15 -20 -2 -22 -1 -9 10 8 6 17 19 18 27 2 8 0 12 -4 8 -4 -4 -12
-4 -18 1 -7 6 -20 5 -34 -3z"/>
<path d="M120 371 c0 -6 5 -13 10 -16 6 -3 10 1 10 9 0 9 -4 16 -10 16 -5 0
-10 -4 -10 -9z"/>
<path d="M84 356 c-5 -6 -13 -20 -17 -30 -8 -19 -7 -19 13 -1 16 14 20 15 20
4 0 -8 -5 -20 -12 -27 -9 -9 -9 -12 0 -12 7 0 11 -5 10 -11 -2 -6 7 -12 19
-14 14 -1 19 3 16 11 -3 8 -10 12 -15 11 -6 -1 -13 4 -15 11 -4 9 3 11 21 8
15 -3 26 0 26 6 0 6 3 9 6 5 3 -3 2 -12 -2 -19 -5 -7 -9 -20 -9 -28 0 -8 -4
-15 -10 -16 -5 0 -20 -5 -32 -10 -17 -7 -20 -13 -13 -24 7 -10 10 -11 10 -2 0
6 6 11 13 10 6 -2 11 3 9 10 -1 8 2 11 7 7 16 -9 1 -138 -17 -152 -13 -11 -8
-13 30 -13 27 0 49 5 52 13 5 10 7 10 12 0 3 -7 22 -13 42 -13 40 0 40 9 -1
12 -14 1 -24 5 -21 9 2 4 1 14 -2 23 -4 11 -13 14 -33 9 -26 -6 -26 -6 -8 15
13 14 15 22 7 27 -14 9 -26 -3 -33 -30 -3 -14 -5 -11 -6 10 0 17 6 39 14 49 8
11 15 16 15 11 0 -6 11 3 26 18 23 25 24 29 10 43 -9 8 -24 13 -34 11 -16 -4
-16 -5 1 -6 11 -1 15 -6 11 -13 -4 -7 -3 -8 4 -4 14 9 15 -3 3 -23 -11 -17
-53 -23 -48 -7 3 6 10 10 16 8 13 -2 10 20 -4 31 -6 4 -3 13 9 22 11 8 15 15
10 15 -6 0 -9 15 -8 33 3 27 2 28 -4 7 -6 -23 -13 -26 -50 -22 -7 1 -16 11
-20 21 -5 14 -10 16 -18 7z m86 -240 c0 -3 -4 -8 -10 -11 -5 -3 -10 -1 -10 4
0 6 5 11 10 11 6 0 10 -2 10 -4z"/>
<path d="M151 354 c0 -11 3 -14 6 -6 3 7 2 16 -1 19 -3 4 -6 -2 -5 -13z"/>
<path d="M1846 335 c-4 -14 -14 -25 -22 -25 -11 0 -15 -6 -11 -20 6 -22 -12
-80 -32 -104 -12 -15 -12 -19 2 -34 16 -15 19 -15 50 3 17 10 35 23 39 29 4 6
11 11 16 11 16 0 92 67 92 81 0 23 -31 44 -65 44 -24 0 -34 5 -38 20 -7 28
-24 25 -31 -5z m93 -61 c-15 -19 -89 -67 -94 -62 -2 2 -1 15 2 30 5 28 36 46
82 47 21 1 22 -1 10 -15z"/>
<path d="M2790 351 c0 -6 -10 -21 -21 -32 -13 -13 -23 -37 -25 -61 -1 -21 -9
-50 -18 -63 -29 -45 13 -79 44 -36 7 11 17 18 22 15 4 -3 8 0 8 6 0 6 15 17
33 25 18 7 45 25 61 40 26 24 27 28 13 48 -9 14 -28 24 -53 27 -25 3 -39 10
-39 19 0 8 -6 16 -12 19 -7 2 -13 -1 -13 -7z m90 -70 c0 -8 -90 -71 -103 -71
-13 0 19 60 37 69 27 12 66 14 66 2z"/>
<path d="M360 281 c-19 -39 -44 -75 -55 -80 -16 -8 -17 -10 -3 -10 10 -1 18
-11 20 -28 5 -40 23 -38 34 4 7 29 14 37 37 40 26 4 37 -10 18 -21 -16 -10
-19 -55 -4 -68 11 -9 16 -9 23 2 5 8 6 18 4 22 -3 5 4 20 15 34 12 15 21 33
21 41 0 8 7 21 15 29 19 20 29 59 20 81 -5 14 -12 8 -32 -30 -16 -28 -33 -47
-44 -47 -9 0 -25 -3 -35 -7 -14 -5 -13 -1 5 24 23 30 25 73 6 80 -6 2 -26 -28
-45 -66z"/>
<path d="M583 333 c-13 -8 -23 -22 -23 -30 0 -7 -9 -31 -20 -53 -11 -22 -20
-48 -20 -60 0 -28 35 -60 66 -60 16 0 23 4 18 12 -4 7 -3 8 5 4 14 -9 53 3 46
14 -3 5 1 11 7 14 7 3 0 4 -17 1 -65 -12 -90 -10 -91 5 -1 26 16 39 61 46 33
4 42 10 38 21 -4 11 -15 13 -47 8 -60 -10 -33 13 35 29 l54 13 -32 13 c-18 6
-33 18 -33 26 0 18 -19 17 -47 -3z"/>
<path d="M908 264 c-34 -74 -38 -90 -29 -111 13 -28 31 -22 31 11 0 12 7 31
14 42 14 18 17 17 61 -33 47 -54 69 -62 106 -42 26 13 15 29 -20 29 -18 0 -39
13 -66 40 -24 25 -33 40 -24 40 8 0 30 13 49 29 28 24 33 32 23 42 -7 7 -29
13 -48 12 -24 -1 -35 3 -35 13 0 36 -25 7 -62 -72z m66 5 c-20 -22 -34 -24
-34 -6 0 19 20 36 37 30 11 -5 11 -9 -3 -24z"/>
<path d="M1170 330 c-8 -15 -21 -20 -51 -20 -33 0 -40 -3 -37 -17 2 -11 14
-19 31 -21 17 -2 26 -8 23 -15 -18 -43 -28 -88 -23 -101 10 -25 26 -19 33 12
4 15 15 46 25 68 19 42 42 54 106 54 18 0 24 5 21 18 -3 13 -14 17 -48 18 -24
0 -46 6 -48 12 -6 18 -20 14 -32 -8z"/>
<path d="M1430 310 c-48 -52 -100 -128 -100 -146 0 -7 8 -20 17 -30 16 -16 18
-15 26 10 5 14 13 26 18 26 6 0 8 4 5 8 -2 4 3 8 12 8 9 1 25 4 34 9 15 6 17
2 15 -30 -3 -53 19 -56 26 -3 3 23 10 44 14 45 16 6 6 114 -11 131 -14 14 -19
12 -56 -28z m41 -54 c-10 -18 -61 -52 -61 -40 0 3 15 24 33 48 21 29 33 39 35
29 2 -9 -1 -25 -7 -37z"/>
<path d="M2125 284 c-18 -40 -40 -71 -55 -79 -24 -14 -24 -14 -3 -15 15 0 20
-5 16 -18 -2 -10 2 -24 11 -31 13 -11 16 -8 21 16 11 50 14 53 41 53 21 0 25
-3 19 -17 -16 -37 -16 -60 -2 -72 13 -10 18 -9 27 10 9 15 9 19 1 14 -6 -3 2
17 19 47 46 80 62 119 56 134 -9 24 -21 16 -43 -30 -17 -35 -28 -44 -52 -48
-37 -5 -37 -5 -10 31 14 19 19 36 14 50 -11 36 -29 23 -60 -45z"/>
<path d="M2359 303 c-68 -78 -100 -133 -88 -154 15 -29 34 -23 49 17 8 20 16
31 18 25 2 -7 11 -6 28 1 31 15 41 4 24 -27 -10 -18 -11 -28 -3 -36 18 -18 33
-1 33 36 0 21 6 37 16 43 10 5 12 12 6 15 -5 4 -7 26 -4 52 4 42 -8 75 -28 75
-5 0 -27 -21 -51 -47z m52 -35 c-5 -14 -24 -33 -41 -41 -34 -17 -32 -12 14 46
32 40 43 38 27 -5z"/>
<path d="M750 279 c-27 -33 -57 -74 -66 -91 -15 -29 -15 -32 5 -51 l20 -21 10
27 c6 15 15 27 21 27 6 0 9 4 6 8 -3 5 0 9 7 9 7 0 22 3 35 7 21 7 21 6 12
-20 -6 -15 -9 -33 -6 -41 10 -24 24 -13 31 24 4 21 10 42 13 48 11 18 12 108
1 122 -20 23 -37 14 -89 -48z m71 -6 c-4 -16 -22 -36 -42 -48 l-34 -20 18 28
c44 68 70 86 58 40z"/>
<path d="M1713 317 c-4 -6 0 -7 8 -3 8 4 6 1 -3 -7 -10 -8 -18 -17 -18 -21 0
-4 -9 -16 -20 -28 -20 -21 -20 -22 -20 -1 0 11 -9 28 -20 38 -20 18 -21 18
-46 -6 -39 -37 -66 -86 -62 -116 5 -45 24 -36 52 26 35 79 46 84 46 22 0 -27
3 -56 6 -65 9 -24 42 -19 50 7 18 59 50 110 82 132 34 23 34 24 11 29 -34 7
-59 4 -66 -7z"/>
<path d="M2662 313 c-7 -10 -10 -11 -6 -3 4 9 3 12 -2 7 -5 -5 -9 -12 -9 -16
0 -3 -10 -19 -21 -34 l-22 -27 -11 30 c-16 46 -39 49 -73 9 -43 -50 -60 -88
-54 -115 10 -37 25 -29 52 30 38 83 52 89 53 21 0 -61 5 -75 26 -75 14 0 80
125 77 143 -1 4 1 6 6 5 11 -4 53 28 45 35 -13 13 -48 7 -61 -10z"/>
</g>
</svg>
